<svg width="24" height="24" viewBox="0 0 24 24" fill="none" xmlns="http://www.w3.org/2000/svg">
<g clip-path="url(#clip0)">
<path d="M22.6509 10.1179L22.6884 10.1261H6.62869L11.6773 5.06643C11.9245 4.8194 12.0601 4.48477 12.0601 4.13355C12.0601 3.78233 11.9245 3.45004 11.6773 3.20243L10.8917 2.41648C10.6447 2.16945 10.3155 2.03287 9.96449 2.03287C9.61327 2.03287 9.28391 2.16848 9.03688 2.4155L0.382639 11.069C0.134639 11.317 -0.000970382 11.6473 5.22758e-06 11.9987C-0.000970382 12.3521 0.134639 12.6826 0.382639 12.9302L9.03688 21.5845C9.28391 21.8313 9.61308 21.9671 9.96449 21.9671C10.3155 21.9671 10.6447 21.8311 10.8917 21.5845L11.6773 20.7985C11.9245 20.5519 12.0601 20.2225 12.0601 19.8713C12.0601 19.5203 11.9245 19.2083 11.6773 18.9615L6.57171 13.8735H22.6689C23.3922 13.8735 24 13.25 24 12.5271V11.4155C24 10.6926 23.3742 10.1179 22.6509 10.1179Z" fill="black"/>
</g>
<defs>
<clipPath id="clip0">
<rect width="24" height="24" fill="white"/>
</clipPath>
</defs>
</svg>
