<svg width="50" height="50" viewBox="0 0 50 50" fill="none" xmlns="http://www.w3.org/2000/svg">
<g clip-path="url(#clip0)">
<path d="M47.1894 21.079L47.2675 21.0961H13.8098L24.3277 10.5551C24.8427 10.0404 25.1252 9.34327 25.1252 8.61156C25.1252 7.87985 24.8427 7.18758 24.3277 6.67172L22.6911 5.03432C22.1764 4.51969 21.4907 4.23514 20.7594 4.23514C20.0277 4.23514 19.3415 4.51766 18.8268 5.03229L0.797165 23.0603C0.280499 23.577 -0.00202163 24.2652 1.08908e-05 24.9973C-0.00202163 25.7335 0.280499 26.4221 0.797165 26.938L18.8268 44.9677C19.3415 45.4819 20.0272 45.7648 20.7594 45.7648C21.4907 45.7648 22.1764 45.4815 22.6911 44.9677L24.3277 43.3303C24.8427 42.8164 25.1252 42.1303 25.1252 41.3985C25.1252 40.6672 24.8427 40.0172 24.3277 39.503L13.6911 28.903H47.2268C48.7338 28.903 50 27.6042 50 26.0981V23.7823C50 22.2762 48.6964 21.079 47.1894 21.079Z" fill="white"/>
</g>
<defs>
<clipPath id="clip0">
<rect width="50" height="50" fill="white"/>
</clipPath>
</defs>
</svg>
