<svg width="36" height="36" viewBox="0 0 36 36" fill="none" xmlns="http://www.w3.org/2000/svg">
<g clip-path="url(#clip0)">
<path d="M32.2119 9.47241C31.4663 9.83313 31.1543 10.7303 31.515 11.4756C32.5005 13.5114 33 15.7057 33 18C33 26.2709 26.2709 33 18 33C9.72913 33 3 26.2709 3 18C3 9.72913 9.72913 3 18 3C21.4274 3 24.6471 4.11914 27.312 6.23621C27.9584 6.7522 28.9036 6.64417 29.4196 5.99561C29.9355 5.34741 29.8275 4.40332 29.1786 3.88806C26.0237 1.38062 22.0536 0 18 0C8.07532 0 0 8.07532 0 18C0 27.9247 8.07532 36 18 36C27.9247 36 36 27.9247 36 18C36 15.2498 35.3994 12.6141 34.2151 10.1693C33.8551 9.42224 32.955 9.11096 32.2119 9.47241Z" fill="#0063BE"/>
<path d="M18 6C17.172 6 16.5 6.672 16.5 7.5V18C16.5 18.828 17.172 19.5 18 19.5H25.5C26.328 19.5 27 18.828 27 18C27 17.172 26.328 16.5 25.5 16.5H19.5V7.5C19.5 6.672 18.828 6 18 6Z" fill="#0063BE"/>
</g>
<defs>
<clipPath id="clip0">
<rect width="36" height="36" fill="white"/>
</clipPath>
</defs>
</svg>
