<svg width="10" height="10" viewBox="0 0 10 10" fill="none" xmlns="http://www.w3.org/2000/svg">
<path d="M3.89862 5.00028L0.159756 1.26126C0.0569106 1.15833 0.000162974 1.02102 3.72529e-07 0.874594C3.72529e-07 0.72809 0.056748 0.59061 0.159756 0.487846L0.487399 0.160285C0.590407 0.0571144 0.727724 0.000610352 0.874309 0.000610352C1.02065 0.000610352 1.15797 0.0571144 1.26098 0.160285L4.99984 3.89907L8.73886 0.160285C8.84171 0.0571144 8.97911 0.000610352 9.12561 0.000610352C9.27195 0.000610352 9.40935 0.0571144 9.5122 0.160285L9.84 0.487846C10.0533 0.701179 10.0533 1.04817 9.84 1.26126L6.10106 5.00028L9.84 8.73915C9.94293 8.84224 9.99959 8.97955 9.99959 9.12598C9.99959 9.2724 9.94293 9.40972 9.84 9.51272L9.51228 9.84028C9.40943 9.94337 9.27195 9.99996 9.12569 9.99996C8.97919 9.99996 8.84179 9.94337 8.73894 9.84028L4.99992 6.10142L1.26106 9.84028C1.15805 9.94337 1.02073 9.99996 0.87439 9.99996H0.874228C0.727805 9.99996 0.590488 9.94337 0.48748 9.84028L0.159838 9.51272C0.0569925 9.4098 0.000244141 9.2724 0.000244141 9.12598C0.000244141 8.97955 0.0569925 8.84224 0.159838 8.73923L3.89862 5.00028Z" fill="black"/>
</svg>
