<svg width="36" height="36" viewBox="0 0 36 36" fill="none" xmlns="http://www.w3.org/2000/svg">
<path d="M23.94 18.0011L35.077 6.86405C36.3076 5.63352 36.3076 3.63852 35.077 2.40992L33.5923 0.925205C32.3614 -0.30571 30.3664 -0.30571 29.1378 0.925205L18.0011 12.0619L6.86405 0.922898C5.63352 -0.307633 3.63852 -0.307633 2.40992 0.922898L0.922898 2.40761C-0.307633 3.63852 -0.307633 5.63352 0.922898 6.86213L12.0619 18.0011L0.925205 29.1378C-0.30571 30.3687 -0.30571 32.3637 0.925205 33.5923L2.40992 35.077C3.64045 36.3076 5.63544 36.3076 6.86405 35.077L18.0011 23.94L29.1378 35.077C30.3687 36.3076 32.3637 36.3076 33.5923 35.077L35.077 33.5923C36.3076 32.3614 36.3076 30.3664 35.077 29.1378L23.94 18.0011Z" fill="white"/>
</svg>
