<svg width="36" height="36" viewBox="0 0 36 36" fill="none" xmlns="http://www.w3.org/2000/svg">
<g clip-path="url(#clip0)">
<path d="M33.1441 5.10315C31.2805 3.08194 28.7235 1.96875 25.9434 1.96875C23.8653 1.96875 21.9622 2.62573 20.2868 3.9213C19.4414 4.57526 18.6754 5.37534 18 6.30917C17.3249 5.37561 16.5586 4.57526 15.7129 3.9213C14.0378 2.62573 12.1347 1.96875 10.0566 1.96875C7.27652 1.96875 4.71918 3.08194 2.85562 5.10315C1.01431 7.10074 0 9.82974 0 12.7878C0 15.8324 1.13461 18.6194 3.57056 21.5587C5.74969 24.188 8.88162 26.8572 12.5085 29.9479C13.7469 31.0034 15.1507 32.1998 16.6083 33.4742C16.9934 33.8115 17.4875 33.9972 18 33.9972C18.5122 33.9972 19.0066 33.8115 19.3911 33.4748C20.8488 32.2001 22.2534 31.0031 23.4923 29.9471C27.1187 26.8569 30.2506 24.188 32.4297 21.5585C34.8657 18.6194 36 15.8324 36 12.7875C36 9.82974 34.9857 7.10074 33.1441 5.10315Z" fill="white"/>
</g>
<defs>
<clipPath id="clip0">
<rect width="36" height="36" fill="white"/>
</clipPath>
</defs>
</svg>
