<svg width="36" height="36" viewBox="0 0 36 36" fill="none" xmlns="http://www.w3.org/2000/svg">
<path d="M18 33.9971C17.4875 33.9971 16.9933 33.8115 16.6083 33.4742C15.154 32.2025 13.7518 31.0075 12.5148 29.9533L12.5085 29.9479C8.88161 26.8571 5.74968 24.188 3.57055 21.5587C1.13461 18.6193 0 15.8324 0 12.7878C0 9.82973 1.01431 7.10073 2.85589 5.10314C4.71944 3.08194 7.27651 1.96875 10.0569 1.96875C12.1349 1.96875 14.038 2.62573 15.7132 3.92129C16.5586 4.57525 17.3249 5.3756 18 6.30917C18.6753 5.3756 19.4414 4.57525 20.287 3.92129C21.9622 2.62573 23.8653 1.96875 25.9433 1.96875C28.7234 1.96875 31.2808 3.08194 33.1443 5.10314C34.9859 7.10073 35.9999 9.82973 35.9999 12.7878C35.9999 15.8324 34.8656 18.6193 32.4297 21.5584C30.2505 24.188 27.1189 26.8569 23.4926 29.9473C22.2533 31.0031 20.849 32.2 19.3914 33.4747C19.0066 33.8115 18.5122 33.9971 18 33.9971ZM10.0569 4.07757C7.87251 4.07757 5.86586 4.94934 4.40606 6.53246C2.92456 8.13948 2.10855 10.3609 2.10855 12.7878C2.10855 15.3484 3.06024 17.6385 5.19405 20.2132C7.25646 22.7018 10.3241 25.316 13.876 28.343L13.8826 28.3485C15.1243 29.4068 16.5319 30.6065 17.9969 31.8875C19.4708 30.604 20.8806 29.4024 22.1248 28.3425C25.6764 25.3155 28.7437 22.7018 30.8062 20.2132C32.9397 17.6385 33.8914 15.3484 33.8914 12.7878C33.8914 10.3609 33.0754 8.13948 31.5939 6.53246C30.1343 4.94934 28.1274 4.07757 25.9433 4.07757C24.3432 4.07757 22.874 4.58624 21.5768 5.58929C20.4208 6.48357 19.6155 7.61406 19.1434 8.40508C18.9006 8.81185 18.4732 9.05464 18 9.05464C17.5267 9.05464 17.0994 8.81185 16.8566 8.40508C16.3847 7.61406 15.5794 6.48357 14.4231 5.58929C13.1259 4.58624 11.6567 4.07757 10.0569 4.07757Z" fill="black"/>
</svg>
