<svg width="50" height="50" viewBox="0 0 50 50" fill="none" xmlns="http://www.w3.org/2000/svg">
<g clip-path="url(#clip0)">
<path d="M46.0335 7.08771C43.4452 4.28047 39.8937 2.73438 36.0325 2.73438C33.1463 2.73438 30.5031 3.64685 28.1761 5.44624C27.002 6.35452 25.938 7.46574 25 8.76274C24.0623 7.46613 22.998 6.35452 21.8235 5.44624C19.4969 3.64685 16.8537 2.73438 13.9675 2.73438C10.1063 2.73438 6.55441 4.28047 3.96614 7.08771C1.40877 9.86214 0 13.6524 0 17.7608C0 21.9894 1.57585 25.8602 4.95911 29.9427C7.98569 33.5945 12.3356 37.3016 17.3729 41.5943C19.0929 43.0603 21.0426 44.722 23.0671 46.492C23.6019 46.9604 24.2882 47.2183 25 47.2183C25.7114 47.2183 26.3981 46.9604 26.9321 46.4928C28.9566 44.7224 30.9074 43.0599 32.6283 41.5932C37.6648 37.3013 42.0147 33.5945 45.0413 29.9423C48.4245 25.8602 50 21.9894 50 17.7605C50 13.6524 48.5912 9.86214 46.0335 7.08771Z" fill="white"/>
</g>
<defs>
<clipPath id="clip0">
<rect width="50" height="50" fill="white"/>
</clipPath>
</defs>
</svg>
