<svg width="137" height="34" viewBox="0 0 137 34" fill="none" xmlns="http://www.w3.org/2000/svg">
<path d="M17 13.004C19.16 14.228 20.24 16.088 20.24 18.584C20.24 20.888 19.484 22.7 17.972 24.02C16.484 25.34 14.312 26 11.456 26H0.8V0.799998H10.808C13.64 0.799998 15.8 1.412 17.288 2.636C18.776 3.86 19.52 5.612 19.52 7.892C19.52 10.076 18.68 11.78 17 13.004ZM10.376 6.992H8V10.376L10.772 10.34C11.804 10.196 12.32 9.644 12.32 8.684C12.32 8.132 12.128 7.712 11.744 7.424C11.36 7.136 10.904 6.992 10.376 6.992ZM11.024 19.808C11.6 19.808 12.08 19.64 12.464 19.304C12.848 18.968 13.04 18.536 13.04 18.008C13.04 17 12.5 16.412 11.42 16.244L8 16.208V19.808H11.024ZM49.6039 0.799998V26H42.4039V7.784H37.0039V26H29.8039V0.799998H49.6039ZM58.798 19.268C59.374 20.468 60.598 21.068 62.47 21.068C63.574 21.068 64.594 20.684 65.53 19.916L69.886 23.588C68.086 25.532 65.542 26.504 62.254 26.504C59.182 26.504 56.71 25.616 54.838 23.84C52.99 22.04 52.066 19.784 52.066 17.072C52.066 14.336 52.966 12.056 54.766 10.232C56.59 8.408 58.882 7.496 61.642 7.496C64.378 7.496 66.622 8.396 68.374 10.196C70.15 11.972 71.038 14.216 71.038 16.928C71.038 17.72 70.942 18.5 70.75 19.268H58.798ZM58.69 14.984H64.738C64.33 13.544 63.358 12.824 61.822 12.824C60.262 12.824 59.218 13.544 58.69 14.984ZM84.4865 7.496C86.9105 7.496 88.8905 8.396 90.4265 10.196C91.9625 11.996 92.7305 14.264 92.7305 17C92.7305 19.736 91.9625 22.004 90.4265 23.804C88.8905 25.604 86.9105 26.504 84.4865 26.504C82.4225 26.504 80.8145 25.796 79.6625 24.38V33.2H73.0025V8H79.6625V9.62C80.8145 8.204 82.4225 7.496 84.4865 7.496ZM80.5265 19.412C81.1265 20.06 81.9065 20.384 82.8665 20.384C83.8265 20.384 84.5945 20.06 85.1705 19.412C85.7705 18.764 86.0705 17.96 86.0705 17C86.0705 16.04 85.7705 15.236 85.1705 14.588C84.5945 13.94 83.8265 13.616 82.8665 13.616C81.9065 13.616 81.1265 13.94 80.5265 14.588C79.9505 15.236 79.6625 16.04 79.6625 17C79.6625 17.96 79.9505 18.764 80.5265 19.412ZM115.643 8V26H109.163V18.08L105.563 23.66H104.915L101.315 18.08V26H94.8345V8H101.315L105.239 14.12L109.163 8H115.643ZM131.166 8H136.53V26H130.05V18.26L123.894 26H118.53V8H125.01V15.74L131.166 8Z" fill="white"/>
</svg>
