<svg width="36" height="36" viewBox="0 0 36 36" fill="none" xmlns="http://www.w3.org/2000/svg">
<g clip-path="url(#clip0)">
<path d="M17.5948 6.60217L18 7.1624L18.4051 6.60219C19.0547 5.704 19.788 4.93927 20.5927 4.31678C22.1824 3.08756 23.9784 2.46875 25.9434 2.46875C28.5856 2.46875 31.0088 3.52483 32.7765 5.44208C34.5251 7.33878 35.5 9.94323 35.5 12.7875C35.5 15.6888 34.4257 18.3666 32.0448 21.2394L32.0447 21.2394C29.8993 23.8283 26.8057 26.4667 23.168 29.5665L23.168 29.5666L23.1372 29.5928C21.906 30.6423 20.5102 31.8319 19.062 33.0984L19.0617 33.0986C18.7686 33.3554 18.3913 33.4972 18 33.4972C17.6085 33.4972 17.2315 33.3554 16.9377 33.0981L16.9374 33.0978C15.4785 31.8223 14.0737 30.625 12.8364 29.5704L12.8328 29.5674L12.8328 29.5673C9.19464 26.467 6.10098 23.8283 3.95554 21.2397C1.57454 18.3666 0.5 15.6888 0.5 12.7878C0.5 9.94324 1.4749 7.3388 3.22322 5.44208C4.99092 3.52484 7.41439 2.46875 10.0566 2.46875C12.0217 2.46875 13.8177 3.08758 15.407 4.31681L15.4071 4.31683C16.212 4.9393 16.9455 5.70428 17.5948 6.60217Z" fill="#0063BE" stroke="white"/>
</g>
<defs>
<clipPath id="clip0">
<rect width="36" height="36" fill="white"/>
</clipPath>
</defs>
</svg>
