<svg width="50" height="50" viewBox="0 0 50 50" fill="none" xmlns="http://www.w3.org/2000/svg">
<g clip-path="url(#clip0)">
<path d="M24.5948 9.05573L25 9.61597L25.4051 9.05576C26.3174 7.79441 27.3486 6.71854 28.482 5.84173C30.7232 4.10868 33.2593 3.23438 36.0325 3.23438C39.7558 3.23438 43.1735 4.72336 45.6659 7.42663C48.1306 10.1002 49.5 13.7659 49.5 17.7605C49.5 21.8458 47.9846 25.6075 44.6563 29.6233L44.6563 29.6233C41.6634 33.2348 37.3518 36.9111 32.304 41.2126L32.3039 41.2126L32.261 41.2492C30.551 42.7068 28.6134 44.3583 26.603 46.1164L26.6027 46.1166C26.1601 46.5043 25.5905 46.7183 25 46.7183C24.4092 46.7183 23.8401 46.5044 23.3965 46.1159L23.3962 46.1156C21.3709 44.3448 19.4206 42.6826 17.7019 41.2178L17.6972 41.2138L17.6972 41.2138C12.6486 36.9115 8.33696 33.2348 5.34408 29.6236C2.01578 25.6075 0.5 21.8458 0.5 17.7608C0.5 13.7659 1.86936 10.1002 4.33374 7.42663C6.82615 4.72337 10.2442 3.23438 13.9675 3.23438C16.7407 3.23438 19.2768 4.1087 21.5176 5.84176L21.5176 5.84178C22.6515 6.71857 23.683 7.7948 24.5948 9.05573Z" fill="#0063BE" stroke="white"/>
</g>
<defs>
<clipPath id="clip0">
<rect width="50" height="50" fill="white"/>
</clipPath>
</defs>
</svg>
