<svg width="423" height="846" viewBox="0 0 423 846" fill="none" xmlns="http://www.w3.org/2000/svg">
<path d="M363.357 768.76C363.357 774.428 301.176 778.658 224.613 778.235C148.05 777.812 85.9536 772.906 86.0382 767.237C86.0382 761.569 148.219 757.339 224.782 757.762C301.345 758.185 363.442 763.092 363.357 768.76Z" fill="#5CB1FF"/>
<path d="M233.242 99.5742C233.327 98.3898 231.804 93.7368 237.134 87.6456C247.878 75.5478 236.119 71.2332 229.774 75.8016L228.42 71.9946C234.765 67.5954 247.286 69.2028 247.032 78.9318C246.947 83.0772 244.579 85.9536 241.618 89.3376C236.795 94.752 238.149 98.136 237.98 99.7434L233.242 99.5742ZM235.442 104.312C240.179 104.396 240.095 112.01 235.188 111.841C230.366 111.757 230.62 104.143 235.442 104.312Z" fill="#9AAEFF"/>
<path d="M275.754 125.948C276.354 124.923 277.048 120.077 284.523 116.973C299.511 110.879 290.875 101.806 283.164 103.095L283.635 99.0818C291.271 97.9447 301.788 104.927 297.255 113.539C295.345 117.219 291.948 118.75 287.795 120.475C281.074 123.196 280.791 126.83 279.928 128.196L275.754 125.948ZM275.63 131.17C279.841 133.342 276.396 140.133 272.07 137.809C267.784 135.6 271.381 128.884 275.63 131.17Z" fill="#9AAEFF"/>
<path d="M54.2286 454.217C54.4824 454.048 75.3786 438.905 73.9404 434.675C72.4176 430.276 66.6648 434.844 63.2808 437.636C59.8122 440.428 55.3284 439.159 56.0052 437.382C56.7666 435.182 63.1116 435.267 68.4414 430.36C73.7712 425.453 82.2312 418.516 84.6846 417.078C84.8538 416.993 88.6608 413.863 94.5828 408.195C97.4592 412.594 100.674 416.824 103.889 420.97C102.704 421.816 101.52 422.577 100.251 423.423C97.4592 431.291 92.214 444.319 87.8994 451.679C83.6694 458.786 79.101 463.693 76.3092 465.723C75.6324 466.231 74.7864 465.469 75.2094 464.708C78.1704 460.055 85.6998 452.272 83.6694 448.718C82.2312 448.634 80.37 450.833 74.448 458.701C71.7408 462.339 67.9338 467.33 67.0032 467.753C62.3502 468.599 68.6106 460.647 71.6562 457.178C74.7864 453.625 78.4242 450.157 77.2398 448.126C76.8168 447.449 72.0792 451.341 66.834 456.925C47.799 477.229 50.8446 466.823 60.8274 457.601C69.9642 449.141 74.1096 445.419 73.602 444.488C72.4176 444.235 70.218 445.927 63.5346 451.51C59.7276 454.725 52.7904 459.209 51.3522 459.209C48.8142 458.87 52.1982 455.656 54.2286 454.217Z" fill="#DE5E5B"/>
<path d="M392.036 464.708C391.783 464.539 370.633 449.734 372.071 445.419C373.509 441.02 379.346 445.504 382.815 448.211C386.368 451.003 390.767 449.649 390.091 447.872C389.329 445.673 382.9 445.927 377.485 441.02C372.071 436.198 363.526 429.345 361.073 427.991C360.904 427.907 357.012 424.777 351.09 419.278C348.298 423.761 345.168 427.991 341.953 432.221C343.138 433.067 344.407 433.829 345.591 434.59C348.552 442.458 353.882 455.317 358.366 462.593C362.68 469.615 367.418 474.437 370.125 476.467C370.802 476.975 371.648 476.129 371.14 475.452C368.095 470.884 360.481 463.185 362.426 459.632C363.865 459.547 365.726 461.662 371.732 469.445C374.524 473.083 378.331 477.99 379.346 478.413C384.084 479.259 377.57 471.391 374.524 467.923C371.394 464.454 367.672 461.07 368.856 458.955C369.279 458.278 374.017 462.085 379.346 467.584C398.635 487.634 395.505 477.229 385.353 468.176C376.132 459.886 371.817 456.248 372.409 455.317C373.594 455.063 375.793 456.755 382.561 462.17C386.453 465.3 393.475 469.699 394.828 469.699C397.535 469.192 394.151 466.146 392.036 464.708Z" fill="#DF7474"/>
<path d="M77.2398 496.856C34.3476 496.856 23.0958 477.567 22.6728 476.721C22.419 476.213 22.5882 475.621 23.0958 475.367C23.6034 475.114 24.1956 475.283 24.4494 475.79C24.6186 476.044 35.7858 494.91 77.3244 494.91C77.832 494.91 78.3396 495.333 78.3396 495.925C78.255 496.433 77.832 496.856 77.2398 496.856Z" fill="#3648A2"/>
<path d="M133.583 355.489C159.725 308.621 162.178 249.739 179.606 241.956C188.743 236.034 182.99 285.61 183.074 292.124C179.521 310.905 176.729 379.431 106.427 429.345C103.466 425.369 87.7302 412.002 85.1076 407.857C95.7672 397.282 119.794 380.192 133.583 355.489Z" fill="#290D49"/>
<path d="M205.578 232.058H238.572L237.557 341.615L193.649 344.576L205.578 232.058Z" fill="#250606"/>
<path d="M148.981 497.617H283.41L259.045 393.052L180.198 386.03L148.981 497.617Z" fill="#250606"/>
<path d="M168.523 757.085C149.911 757.085 150.334 764.784 150.334 764.784H204.817C204.817 764.784 202.109 741.096 201.686 735.428H188.912C187.558 742.365 182.821 757.085 168.523 757.085Z" fill="#250606"/>
<path d="M259.637 759.877C242.717 759.877 239.249 739.15 238.741 735.428H226.474C226.474 736.443 226.474 737.12 226.474 737.204C226.474 739.742 223.259 767.576 223.259 767.576C223.259 767.576 236.88 767.576 245.932 767.576C254.984 767.576 277.742 767.576 277.742 767.576C277.742 767.576 278.249 759.877 259.637 759.877Z" fill="#250606"/>
<path d="M254.731 610.727L272.158 462.424L267.251 418.516H171.484L170.807 457.178L160.74 607.936C160.74 607.936 185.697 733.397 185.274 735.512H203.378C203.378 735.089 198.302 597.953 198.302 597.953L218.945 475.79L227.066 604.044C227.066 604.044 223.429 719.608 223.344 735.597H240.264C240.264 735.089 254.731 610.727 254.731 610.727Z" fill="#49213D"/>
<path d="M267.844 424.269L267.167 418.516H171.484L171.4 423.592L191.534 430.445C207.947 436.028 225.374 436.536 241.956 431.714L267.844 424.269Z" fill="#141415"/>
<path d="M273.85 261.16C263.444 249.401 239.333 230.535 212.769 235.103L173.515 249.655L169.538 307.944V423L268.52 424.184L277.911 312.174C277.911 312.089 284.256 272.92 273.85 261.16Z" fill="#E1C28C"/>
<path d="M208.454 209.3C208.454 209.3 208.116 234.68 205.747 247.624C204.817 252.616 207.101 257.776 211.331 259.553C214.461 260.906 218.522 261.668 223.682 260.737C237.049 258.199 237.557 242.971 237.557 242.971L233.073 196.695L208.454 209.3Z" fill="#DF7474"/>
<path d="M232.988 196.695L208.454 209.3C208.454 209.3 208.37 218.691 207.693 228.928C214.123 229.266 222.16 225.544 230.704 214.546C231.973 212.938 233.158 211.246 234.257 209.639L232.988 196.695Z" fill="#DE5E5B"/>
<path d="M210.062 144.243C210.062 144.243 201.686 151.434 198.049 163.532C194.411 175.63 191.281 184.343 191.281 184.343L195.172 186.881C195.172 186.881 192.127 203.717 194.495 209.554C198.133 218.268 213.446 225.374 230.789 205.663C248.132 185.951 249.655 168.608 246.694 160.148C243.648 151.688 216.914 139.844 210.062 144.243Z" fill="#DF7474"/>
<path d="M236.203 163.278C236.203 163.278 228.505 156.087 217.337 159.133C206.255 162.178 202.448 157.441 204.647 154.987C204.647 154.987 194.918 155.241 191.281 146.273C187.643 137.306 188.573 109.98 205.832 115.141C223.09 120.301 219.622 132.653 219.622 132.653C219.622 132.653 225.121 126.731 230.366 129.861C235.611 132.907 234.934 137.306 234.934 137.306C234.934 137.306 239.672 147.373 246.271 148.642C252.869 149.911 252.193 164.885 252.193 164.885C252.193 164.885 256.084 167.931 253.292 178.76C250.585 189.589 234.511 206.255 234.511 211.415C234.511 211.415 230.535 204.732 233.75 194.157C236.965 183.582 236.965 177.406 233.496 177.406C230.027 177.406 236.203 163.278 236.203 163.278Z" fill="#171D43"/>
<path d="M231.296 184.343C231.296 184.343 232.396 175.46 234.85 175.46C237.303 175.46 239.587 176.391 238.995 181.467C238.403 186.458 235.865 192.042 232.65 189.758C229.435 187.474 231.296 184.343 231.296 184.343Z" fill="#DF7474"/>
<path d="M260.568 164.039C260.314 163.363 259.807 162.601 259.13 162.263C257.015 161.248 254.138 163.447 252.193 164.97L251.854 164.547C253.123 163.024 254.477 161.586 256.338 160.655C259.13 159.302 261.583 160.655 262.683 163.193L260.568 164.039Z" fill="#171D43"/>
<path d="M258.791 174.953C258.961 173.768 258.961 172.33 258.707 171.146C257.353 164.97 250.67 165.478 250.331 165.308V164.885C250.501 164.97 259.976 162.855 261.329 172.922C261.414 173.768 261.499 174.53 261.414 175.545L258.791 174.953Z" fill="#171D43"/>
<path d="M208.116 171.23C208.116 173.43 207.27 175.207 206.255 175.207C205.24 175.207 204.394 173.43 204.394 171.23C204.394 169.031 205.24 167.254 206.255 167.254C207.27 167.254 208.116 169.031 208.116 171.23Z" fill="#3648A2"/>
<path d="M211.331 168.946C210.4 164.716 206.255 161.924 206.17 161.924L207.016 160.655C207.185 160.74 211.585 163.786 212.684 168.523L211.331 168.946Z" fill="#3648A2"/>
<path d="M202.279 236.372L194.918 497.617H148.981L162.517 378.923L164.209 305.152C164.209 305.152 166.239 253.969 175.63 245.34C184.936 236.626 202.279 236.372 202.279 236.372Z" fill="#2C1153"/>
<path d="M232.904 180.79C232.904 180.79 234.342 177.745 235.611 178.252C236.88 178.675 237.218 184.682 234.934 187.304C232.65 189.758 230.704 185.612 232.904 180.79Z" fill="#DE5E5B"/>
<path d="M239.08 234.934L234.257 497.617H283.41C283.41 497.617 285.271 289.417 279.857 267.674C274.442 245.932 239.08 234.934 239.08 234.934Z" fill="#2C1153"/>
<path d="M186.374 493.387L152.703 490.849L158.117 437.467H186.374V493.387Z" fill="#523D74"/>
<path d="M283.579 496.602L250.585 497.617V440.428H283.748L283.579 496.602Z" fill="#523D74"/>
<path d="M182.99 237.726L205.578 232.058L199.233 343.053L187.135 280.026L191.196 277.234L182.99 237.726Z" fill="#523D74"/>
<path d="M237.134 343.053L238.572 232.058L257.438 240.687L247.201 277.15L249.824 279.18L237.134 343.053Z" fill="#523D74"/>
<path d="M350.752 299.738C350.329 299.738 349.99 299.484 349.821 298.976C339.923 254.561 279.688 218.437 279.011 218.099C278.588 217.845 278.419 217.253 278.672 216.83C278.926 216.407 279.518 216.238 279.941 216.491C280.534 216.83 341.53 253.377 351.598 298.638C351.682 299.146 351.428 299.653 350.921 299.738C350.836 299.738 350.836 299.738 350.752 299.738Z" fill="#1C2458"/>
<path d="M205.578 201.94C205.578 204.817 204.224 207.185 202.532 207.185C200.84 207.185 199.487 204.817 199.487 201.94C199.487 199.064 200.84 196.695 202.532 196.695C204.14 196.695 205.578 199.064 205.578 201.94Z" fill="#232C7A"/>
<path d="M315.727 363.272C288.909 316.827 285.61 257.945 268.097 250.501C258.876 244.748 265.39 294.154 265.39 300.668C269.197 319.365 273.004 387.806 344.068 436.705C347.029 432.644 362.511 419.108 365.134 414.878C354.136 404.473 329.855 387.722 315.727 363.272Z" fill="#290D49"/>
</svg>
